#!OML:ASF E:\Style4\Style4.ASF
:FULLY-SPECIFIED
:DEGREES
2076
root 0.0100414 18.2308 -0.395787 8.37081 -16.3562 1.61973
lowerback 7.71815 1.12694 -0.678312
upperback -1.24367 1.35258 -1.50799
thorax -5.6081 0.662829 -1.35759
lowerneck -2.69915 -6.53673 -4.11951
upperneck -19.8272 -8.03947 7.15463
head -5.03366 -4.143 3.17728
rclavicle 1.11568e-014 6.75868e-015
rhumerus 87.974 -34.5295 -51.0421
rradius 26.974
rwrist -29.6284
rhand -23.3356 19.6861
rfingers 7.12502
rthumb 3.11904 -10.2709
lclavicle 1.11568e-014 6.75868e-015
lhumerus 81.7575 31.6719 40.1456
lradius 41.3119
lwrist 39.7318
lhand -13.6854 33.9908
lfingers 7.12502
lthumb 12.4324 63.601
rfemur -15.8031 8.28552 15.2221
rtibia 17.8422
rfoot -12.18 -6.47979
rtoes -11.9473
lfemur -9.38855 4.26935 -21.4336
ltibia 14.5619
lfoot -18.7161 21.439
ltoes -6.55765
2077
root 0.0100849 18.2302 -0.39061 8.40054 -16.337 1.53907
lowerback 7.73034 1.13914 -0.574576
upperback -1.31335 1.37879 -1.49243
thorax -5.68562 0.672341 -1.40459
lowerneck -2.50013 -6.55337 -4.10575
upperneck -19.9111 -8.06685 7.15055
head -5.09191 -4.15903 3.18529
rclavicle -1.25234e-014 -7.95139e-015
rhumerus 88.1165 -34.8082 -51.5763
rradius 26.5934
rwrist -29.146
rhand -23.0768 19.7233
rfingers 7.12502
rthumb 3.3689 -10.2298
lclavicle -1.25234e-014 -7.95139e-015
lhumerus 81.7302 31.8274 40.6744
lradius 40.8482
lwrist 39.2959
lhand -13.6176 34.0441
lfingers 7.12502
lthumb 12.4978 63.6504
rfemur -15.7569 8.21305 15.315
rtibia 17.7845
rfoot -12.1728 -6.41322
rtoes -12.0317
lfemur -9.4165 4.29165 -21.3517
ltibia 14.6439
lfoot -18.6957 21.2994
ltoes -6.00811
2078
root 0.00966073 18.2305 -0.386814 8.4581 -16.3153 1.40345
lowerback 7.74512 1.14797 -0.428351
upperback -1.39527 1.40569 -1.45898
thorax -5.77683 0.680898 -1.45725
lowerneck -2.27194 -6.54621 -4.11629
upperneck -19.9895 -8.06134 7.15865
head -5.15345 -4.1582 3.20136
rclavicle -3.76448e-014 2.24627e-014
rhumerus 87.8007 -35.1716 -51.573
rradius 26.4385
rwrist -29.1838
rhand -23.1343 19.4881
rfingers 7.12502
rthumb 3.31341 -10.4659
lclavicle -3.76448e-014 2.24627e-014
lhumerus 81.7329 31.9772 41.2322
lradius 40.2437
lwrist 38.7995
lhand -13.5196 33.94
lfingers 7.12502
lthumb 12.5923 63.5405
rfemur -15.7477 8.24219 15.4588
rtibia 17.7453
rfoot -12.1582 -6.43326
rtoes -11.9834
lfemur -9.46131 4.29419 -21.2077
ltibia 14.7187
lfoot -18.6672 21.2767
ltoes -5.95408
2079
root 0.00928593 18.2308 -0.383743 8.47149 -16.3083 1.40997
lowerback 7.76561 1.1482 -0.418777
upperback -1.42798 1.40588 -1.46592
thorax -5.82248 0.680262 -1.4711
lowerneck -2.25781 -6.53527 -4.14469
upperneck -19.9787 -8.04494 7.17524
head -5.15118 -4.14919 3.21083
rclavicle 5.28519e-014 -1.68967e-014
rhumerus 87.5948 -35.5015 -51.5991
rradius 26.2473
rwrist -29.2851
rhand -23.1141 19.6427
rfingers 7.12502
rthumb 3.33291 -10.311
lclavicle 5.28519e-014 -1.68967e-014
lhumerus 81.4031 32.4202 41.2064
lradius 39.8648
lwrist 38.7927
lhand -13.3058 33.8861
lfingers 7.12502
lthumb 12.7984 63.4738
rfemur -15.7496 8.30368 15.4393
rtibia 17.7242
rfoot -12.1587 -6.48892
rtoes -11.8776
lfemur -9.50787 4.26692 -21.2156
ltibia 14.7927
lfoot -18.7391 21.2752
ltoes -5.76523
2080
root 0.00900922 18.2304 -0.380655 8.47216 -16.3095 1.44898
lowerback 7.77986 1.15872 -0.453694
upperback -1.4555 1.41554 -1.47236
thorax -5.86006 0.685856 -1.46035
lowerneck -2.24743 -6.49284 -4.14664
upperneck -19.93 -7.99017 7.15677
head -5.14163 -4.12074 3.20295
rclavicle 3.20789e-014 -1.37161e-014
rhumerus 87.8621 -35.6993 -52.2363
rradius 25.8886
rwrist -28.8929
rhand -22.9881 19.97
rfingers 7.12502
rthumb 3.4546 -9.98176
lclavicle 3.20789e-014 -1.37161e-014
lhumerus 80.8498 33.0353 40.843
lradius 39.6657
lwrist 39.1728
lhand -13.2587 34.1632
lfingers 7.12502
lthumb 12.8438 63.748
rfemur -15.7488 8.30998 15.3933
rtibia 17.7268
rfoot -12.1901 -6.4836
rtoes -11.6528
lfemur -9.53386 4.30864 -21.2655
ltibia 14.8392
lfoot -18.8028 21.2726
ltoes -6.15323
2081
root 0.00687625 18.2308 -0.377578 8.45533 -16.316 1.50733
lowerback 7.7772 1.17329 -0.537386
upperback -1.48028 1.42612 -1.47658
thorax -5.88638 0.69369 -1.41951
lowerneck -2.08611 -6.47962 -4.14595
upperneck -20.0142 -7.97153 7.18186
head -5.19433 -4.11493 3.2197
rclavicle -6.68413e-015 4.77083e-015
rhumerus 88.2909 -35.8486 -53.1582
rradius 25.5327
rwrist -28.3356
rhand -22.9742 19.7557
rfingers 7.12502
rthumb 3.468 -10.1959
lclavicle -6.68413e-015 4.77083e-015
lhumerus 80.6465 33.2936 41.0353
lradius 39.2833
lwrist 39.1228
lhand -13.4489 34.2905
lfingers 7.12502
lthumb 12.6605 63.8868
rfemur -15.7615 8.34273 15.3382
rtibia 17.7702
rfoot -12.2253 -6.53725
rtoes -11.9223
lfemur -9.52629 4.37068 -21.3229
ltibia 14.8368
lfoot -18.7546 21.2906
ltoes -6.68115
